<svg id="Layer_1" enable-background="new 0 0 512 512" height="512" viewBox="0 0 512 512" width="512" xmlns="http://www.w3.org/2000/svg"><g><g clip-rule="evenodd" fill-rule="evenodd"><path d="m299.002 358.729h61.286v31.324h-61.286z" fill="#365e7d"/><path d="m304.53 341.495v56.41c0 15.761-12.898 28.659-28.659 28.659h-239.7c-15.761 0-28.659-12.897-28.659-28.659v-56.41c0-3.203 2.608-5.84 5.811-5.84h285.396c3.203 0 5.811 2.637 5.811 5.84z" fill="#407093"/><path d="m304.53 341.495v48.558h-29.112v-54.398h23.301c3.203 0 5.811 2.637 5.811 5.84z" fill="#365e7d"/><path d="m304.53 390.053v7.852c0 15.761-12.898 28.659-28.659 28.659h-239.7c-15.761 0-28.659-12.897-28.659-28.659v-7.852z" fill="#365e7d"/><path d="m304.53 390.053v7.852c0 15.761-12.898 28.659-28.659 28.659h-29.112c15.76 0 28.658-12.897 28.658-28.659v-7.852z" fill="#2b4d66"/><path d="m360.543 346.427h13.408 102.615c15.364 0 27.95 12.585 27.95 27.95 0 15.392-12.586 27.978-27.95 27.978h-102.615-13.408c-3.203 0-5.812-2.636-5.812-5.839v-44.25c0-3.203 2.609-5.839 5.812-5.839z" fill="#d68756"/><path d="m447.426 346.427h29.141c15.364 0 27.95 12.585 27.95 27.95 0 15.392-12.586 27.978-27.95 27.978h-29.141c15.393 0 27.95-12.586 27.95-27.978-.001-15.365-12.558-27.95-27.95-27.95z" fill="#c47443"/><path d="m360.543 346.427h13.408 11.537v55.928h-11.537-13.408c-3.203 0-5.812-2.636-5.812-5.839v-44.25c0-3.203 2.609-5.839 5.812-5.839z" fill="#e59b6c"/><path d="m253.137 282.675c0 6.35-8.476 11.509-18.964 11.509-10.46 0-18.964-5.159-18.964-11.509 1.361-8.277 2.58-16.725 4.224-24.945 1.219-6.01-1.502-5.585-6.69-6.406-8.504-1.39-15.647-5.216-15.846-14.684 0-14.344 16.696-25.938 37.276-25.938 20.608 0 37.304 11.594 37.304 25.938-.227 10.29-8.419 13.578-17.348 14.882-7.03 1.02-5.811 2.636-4.677 8.702 1.36 7.342 2.494 15.052 3.685 22.451z" fill="#f5bc98"/><path d="m66.53 241.913 22.252 12.671c4.139 2.352 5.613 7.682 3.26 11.849l-12.671 22.252c-2.381 4.139-7.71 5.612-11.849 3.26l-22.252-12.672c-4.167-2.381-5.612-7.71-3.26-11.849l12.671-22.252c2.353-4.166 7.682-5.612 11.849-3.259z" fill="#e59b6c"/><path d="m139.069 274.171 17.604-7.2c3.288-1.332 7.087.255 8.419 3.544l7.2 17.632c1.332 3.288-.255 7.086-3.544 8.419l-17.631 7.2c-3.289 1.333-7.059-.255-8.419-3.543l-7.172-17.632c-1.361-3.29.255-7.088 3.543-8.42z" fill="#e59b6c"/><path d="m150.295 228.079c-8.504 4.932-18.397.907-24.747-5.641-4.904-5.017-5.018-2.92-11.112-3.033-7.427-.17-14.23-2.721-18.171-9.297-4.96-8.504-.907-18.398 5.641-24.747 4.989-4.875 2.891-5.074 3.033-11.111.17-7.427 2.693-14.202 9.298-18.17 8.192-4.763 18.113-1.134 24.321 5.215 4.28 4.394 4.847 3.657 10.517 3.43 15.308-.567 26.419 12.019 19.078 26.645-1.814 3.544-3.401 5.443-6.293 8.165-3.968 3.741-2.183 5.471-2.268 10.374-.141 7.398-2.72 14.23-9.297 18.17z" fill="#dd636e"/><path d="m113.841 102.163c1.049 1.814 7.058 11.849 1.871 11.594-2.154-.114-5.244-1.701-7.71-2.183-8.079-1.588-16.838.368-23.925 4.394-9.354 5.442-16.526 16.355-16.866 27.269-.142 4.904-.425 8.164-5.67 3.685-2.835-2.438-5.301-5.329-7.257-8.532-10.006-16.441-4.79-37.872 11.651-47.877 16.441-10.007 37.899-4.792 47.906 11.65z" fill="#ffe07d"/><path d="m325.592 358.729h29.14v31.324h-29.14z" fill="#2b4d66"/></g><path d="m72.171 343.167c-4.139 0-7.512-3.345-7.512-7.512 0-4.138 3.373-7.483 7.512-7.483h232.359c4.167 0 7.512 3.345 7.512 7.483v15.591h35.178v-4.819c0-4.139 3.374-7.483 7.512-7.483h30.757 91.078c9.751 0 18.624 3.968 25.03 10.403 6.435 6.406 10.403 15.279 10.403 25.031 0 9.779-3.969 18.624-10.403 25.058-6.406 6.406-15.279 10.404-25.03 10.404h-91.078-30.757c-4.138 0-7.512-3.345-7.512-7.484v-4.818h-35.178c0 9.865-3.628 18.936-10.63 25.909-6.548 6.548-15.591 10.63-25.54 10.63h-239.7c-9.95 0-18.993-4.081-25.541-10.63-6.549-6.55-10.631-15.592-10.631-25.543v-62.25c0-4.138 3.373-7.483 7.512-7.483h30.7c4.138 0 7.483 3.345 7.483 7.483 0 4.167-3.345 7.512-7.483 7.512h-23.216v39.374h225.584c4.167 0 7.512 3.345 7.512 7.512 0 4.138-3.345 7.483-7.512 7.483h-225.584v.368c0 5.811 2.381 11.112 6.236 14.939 3.827 3.855 9.128 6.236 14.939 6.236h239.7c5.811 0 11.112-2.381 14.939-6.236 4.167-4.167 6.236-9.44 6.236-15.307h-22.479c-4.139 0-7.512-3.345-7.512-7.483 0-4.167 3.373-7.512 7.512-7.512h22.479v-39.374h-224.875zm320.829 10.772v40.904h83.566c5.612 0 10.715-2.296 14.429-6.009 3.713-3.713 6.009-8.816 6.009-14.457 0-5.613-2.296-10.715-6.009-14.429-3.714-3.713-8.816-6.009-14.429-6.009zm-15.024 40.904v-40.904h-15.76v40.904zm-169.173-283.439c1.361-3.884 5.613-5.953 9.524-4.593 3.883 1.361 5.953 5.613 4.592 9.525l-4.366 12.444c-1.36 3.912-5.641 5.981-9.524 4.62-3.912-1.36-5.953-5.641-4.592-9.524zm11.083 49.323c2.636-3.175 7.342-3.571 10.517-.907 3.146 2.637 3.543 7.342.907 10.517l-8.504 10.092c-2.665 3.175-7.37 3.571-10.516.907-3.146-2.636-3.572-7.342-.907-10.517zm-60.832-52.327c-.907-4.026 1.616-8.023 5.641-8.93 4.053-.907 8.05 1.616 8.957 5.641l2.892 12.87c.907 4.053-1.616 8.05-5.641 8.957s-8.022-1.644-8.929-5.669zm-38.608-9.752c1.219 2.098 5.074 8.731 4.819 13.692-.283 5.613-3.033 9.241-9.921 8.872-2.296-.113-4.309-.822-6.378-1.531-3.884-1.36-7.512-1.474-11.594-.708-7.965 1.445-14.598 5.782-18.907 12.756-2.24 3.628-3.657 7.71-3.77 11.707-.142 3.94-.397 7.285-2.722 10.035-3.827 4.451-8.504 4.961-15.279-.85-3.26-2.806-6.605-6.634-8.788-10.318-6.094-10.007-7.54-21.515-4.989-32.032 2.579-10.545 9.156-20.098 19.134-26.164 9.723-5.84 20.977-7.654 32.003-4.961 10.914 2.664 20.722 9.75 26.392 19.502zm-25.768 5.612c3.685-.681 7.456-.879 11.169-.539-3.912-5.159-9.354-8.589-15.307-10.034-6.803-1.673-14.23-.737-20.693 3.203s-10.744 10.091-12.388 16.895c-1.786 7.285-.51 14.854 3.487 21.175 1.021-3.912 2.693-7.654 4.819-11.084 6.576-10.63 16.724-17.376 28.913-19.616zm41.755 132.862c-6.18-1.417-11.31-4.366-15.647-8.844-1.843-1.871-3.374-1.333-6.52-1.417-4.96-.085-9.808-1.105-14.145-3.316-10.205-5.216-15.449-15.988-12.898-27.297 1.418-6.18 4.592-11.509 9.071-15.846 1.814-1.786 1.105-3.374 1.191-6.321.113-4.989 1.105-9.836 3.316-14.145 5.188-10.148 15.818-15.364 27.071-12.926 6.066 1.275 11.764 4.678 16.044 9.072 1.815 1.842 2.523 1.275 4.904 1.19 5.556-.227 10.744.936 15.137 3.146 4.025 2.013 7.398 4.876 9.808 8.391 2.495 3.628 3.997 7.88 4.167 12.557.255 6.718-2.466 13.749-6.633 19.021-1.134 1.446-2.041 2.438-3.6 3.912-.708.681-.878 1.361-.765 2.381.085 1.049.142 1.786.113 3.374-.085 5.017-1.077 9.864-3.26 14.145-1.843 3.628-4.507 6.803-8.079 9.326-5.668 3.965-12.472 5.128-19.275 3.597zm3.288-14.599c4.564 1.021 8.589-1.021 10.687-5.131 1.616-3.118 1.899-6.69 1.56-10.12-.51-4.847-.822-7.937 4.79-13.209 1.134-1.077 2.012-1.984 2.778-2.92 1.984-2.523 3.572-6.038 3.458-9.241-.057-1.701-.624-3.26-1.53-4.592-.992-1.446-2.438-2.665-4.167-3.544-3.289-1.644-6.265-1.672-9.809-1.474-6.633.369-8.192.482-14.287-5.783-2.324-2.381-5.329-4.195-8.447-4.876-4.507-.964-8.561.992-10.658 5.103-1.644 3.231-1.899 7.058-1.502 10.602.539 5.188.766 7.285-5.471 13.379-2.552 2.466-4.564 5.613-5.301 8.816-1.021 4.507 1.021 8.617 5.102 10.715 3.232 1.672 7.031 1.899 10.602 1.502 5.216-.566 7.257-.793 13.38 5.5 2.466 2.523 5.584 4.536 8.815 5.273zm-3.486 44.703 17.66-7.2c3.515-1.417 7.313-1.275 10.63.113 3.289 1.389 6.066 4.025 7.512 7.568l7.2 17.632c1.446 3.515 1.304 7.342-.085 10.658-1.389 3.288-4.025 6.066-7.597 7.512l-17.631 7.2c-3.515 1.417-7.342 1.275-10.63-.113-3.316-1.39-6.066-4.025-7.54-7.569l-7.172-17.631c-1.445-3.515-1.304-7.342.085-10.659 1.388-3.287 4.024-6.065 7.568-7.511zm22.309 7.086-15.704 6.407 6.407 15.704 15.704-6.406zm-88.329-38.89 22.252 12.67c3.883 2.183 6.492 5.783 7.597 9.78 1.077 3.968.652 8.391-1.531 12.246l-12.67 22.252c-2.183 3.855-5.783 6.491-9.78 7.597-3.997 1.077-8.391.652-12.246-1.531-6.633-3.77-17.121-8.872-22.96-13.067-3.487-2.239-5.839-5.641-6.888-9.383-1.105-4.054-.595-9.241 1.814-12.756l12.388-21.742c2.183-3.883 5.782-6.491 9.779-7.597 3.968-1.107 8.39-.681 12.245 1.531zm14.882 25.653-22.281-12.671c-.567-.312-1.304-.113-1.644.453l-12.642 22.252c-.34.567-.142 1.332.425 1.645l22.252 12.671c.567.34 1.333.142 1.644-.425l12.671-22.281c.341-.567.142-1.304-.425-1.644zm166.368 36.114c-4.564 2.778-10.687 4.479-17.292 4.479-6.577 0-12.699-1.701-17.263-4.479-5.244-3.175-10.545-9.779-8.986-16.271l3.628-22.139c-4.535-.879-8.589-2.211-11.934-4.195-6.435-3.799-10.206-9.496-10.206-17.943 0-9.78 5.386-18.426 14.117-24.492 7.965-5.528 18.793-8.958 30.643-8.958 11.877 0 22.706 3.43 30.643 8.958 8.759 6.066 14.145 14.712 14.145 24.492 0 8.447-3.771 14.145-10.205 17.943-3.373 1.984-7.398 3.316-11.934 4.195l3.713 22.677c1.05 6.435-3.882 12.586-9.069 15.733zm-5.868-14.287-4.705-28.829c-1.049-4.422 2.126-8.787 6.661-9.184 5.811-.482 10.573-1.418 13.578-3.175 1.786-1.077 2.834-2.665 2.834-5.074 0-4.564-2.948-8.873-7.682-12.19-5.556-3.854-13.351-6.265-22.11-6.265-8.731 0-16.526 2.41-22.082 6.265-4.762 3.317-7.682 7.626-7.682 12.19 0 2.409 1.049 3.997 2.835 5.074 4.337 2.551 9.411 2.495 14.145 3.26 4.081.68 6.831 4.507 6.179 8.589l-4.791 29.31c1.219 2.636 8.873 3.798 11.396 3.798 2.721.001 9.95-1.105 11.424-3.769zm66.444 83.339v16.299h35.178v-16.299z"/></g></svg>