<svg id="Capa_1" enable-background="new 0 0 512 512" height="512" viewBox="0 0 512 512" width="512" xmlns="http://www.w3.org/2000/svg"><g><path d="m361 346v105c0 8.291 6.709 15 15 15s15-6.709 15-15v-45z" fill="#591f1f"/><path d="m121 451c0 8.291 6.709 15 15 15s15-6.709 15-15v-105l-30 60z" fill="#804040"/><path d="m467 346h-91v-60h106z" fill="#591f1f"/><g><path d="m467 466c-8.291 0-15-6.709-15-15v-120l30.117-211.86c1.025-8.218 8.452-13.989 16.743-13.022 8.218 1.025 14.048 8.525 13.022 16.743l-30 210 .118 118.139c0 8.291-6.709 15-15 15z" fill="#804040"/></g><path d="m45 346h91v-60h-106z" fill="#591f1f"/><g><path d="m45 466c8.291 0 15-6.709 15-15v-120l-30.117-211.86c-1.025-8.218-8.452-13.989-16.743-13.022-8.218 1.025-14.048 8.525-13.022 16.743l30 210-.118 118.139c0 8.291 6.709 15 15 15z" fill="#804040"/></g><path d="m316 76c-8.291 0-15 6.709-15 15v30c0 8.276-6.724 15-15 15h-15v-75c0-8.291-6.709-15-15-15s-15 6.709-15 15v75h-15c-8.276 0-15-6.724-15-15v-30c0-8.291-6.709-15-15-15s-15 6.709-15 15v30c0 24.814 20.186 45 45 45h15v45c0 8.291 6.709 15 15 15s15-6.709 15-15v-45h15c24.814 0 45-20.186 45-45v-30c0-8.291-6.709-15-15-15z" fill="#edf5ff"/><path d="m271 211v-45h15c24.814 0 45-20.186 45-45v-30c0-8.291-6.709-15-15-15s-15 6.709-15 15v30c0 8.276-6.724 15-15 15h-15v-75c0-8.291-6.709-15-15-15v180c8.291 0 15-6.709 15-15z" fill="#d5e8fe"/><g><path d="m126.067 199.94c-3.058 2.747-5.067 6.627-5.067 11.06v195l135-105-33.676-79.526z" fill="#e64d2e"/></g><path d="m376 196h-120-120c-3.851 0-7.278 1.555-9.933 3.94l129.933 101.06 135 105v-195c0-8.267-7.176-15-15-15z" fill="#ff7b4a"/><path d="m391 211c0-8.267-7.176-15-15-15h-120v105l135 105z" fill="#e64d2e"/></g></svg>